<svg width="40" height="40" viewBox="0 0 40 40" fill="none" xmlns="http://www.w3.org/2000/svg">
<path d="M9.6516 39.4219C6.7716 39.4219 4.4196 38.3659 2.5956 36.2539C0.867601 34.1419 0.00360137 30.8779 0.00360137 26.4619C0.00360137 21.6619 1.0596 17.2459 3.1716 13.2139C5.3796 9.08586 8.3076 5.10186 11.9556 1.26186C12.3396 0.973859 12.6756 0.973859 12.9636 1.26186C13.2516 1.54986 13.2996 1.88586 13.1076 2.26986C10.7076 5.43786 9.1236 8.50986 8.3556 11.4859C7.5876 14.3659 7.2036 17.3899 7.2036 20.5579C7.2036 23.3419 7.5396 25.5019 8.2116 27.0379C8.9796 28.4779 9.8916 29.6299 10.9476 30.4939L5.4756 31.5019C5.3796 29.8699 5.8116 28.6219 6.7716 27.7579C7.8276 26.8939 9.1716 26.4619 10.8036 26.4619C12.8196 26.4619 14.3556 27.0379 15.4116 28.1899C16.5636 29.3419 17.1396 30.9259 17.1396 32.9419C17.1396 35.0539 16.4676 36.6859 15.1236 37.8379C13.8756 38.8939 12.0516 39.4219 9.6516 39.4219ZM31.9716 39.4219C29.0916 39.4219 26.7396 38.3659 24.9156 36.2539C23.1876 34.1419 22.3236 30.8779 22.3236 26.4619C22.3236 21.6619 23.3796 17.2459 25.4916 13.2139C27.6996 9.08586 30.6276 5.10186 34.2756 1.26186C34.6596 0.973859 34.9956 0.973859 35.2836 1.26186C35.5716 1.54986 35.6196 1.88586 35.4276 2.26986C33.0276 5.43786 31.4436 8.50986 30.6756 11.4859C29.9076 14.3659 29.5236 17.3899 29.5236 20.5579C29.5236 23.3419 29.8596 25.5019 30.5316 27.0379C31.2996 28.4779 32.1636 29.6299 33.1236 30.4939L27.7956 31.5019C27.6996 29.8699 28.1316 28.6219 29.0916 27.7579C30.1476 26.8939 31.4916 26.4619 33.1236 26.4619C35.1396 26.4619 36.6756 27.0379 37.7316 28.1899C38.8836 29.3419 39.4596 30.9259 39.4596 32.9419C39.4596 35.0539 38.7876 36.6859 37.4436 37.8379C36.1956 38.8939 34.3716 39.4219 31.9716 39.4219Z" fill="#F4DCBA"/>
</svg>
