<svg width="23" height="23" viewBox="0 0 23 23" fill="none" xmlns="http://www.w3.org/2000/svg">
<path d="M6.62886 0H16.2293C19.8866 0 22.8581 2.97156 22.8581 6.62886V16.2293C22.8581 17.9874 22.1597 19.6734 20.9166 20.9166C19.6734 22.1597 17.9874 22.8581 16.2293 22.8581H6.62886C2.97156 22.8581 0 19.8866 0 16.2293V6.62886C0 4.87077 0.698396 3.1847 1.94155 1.94155C3.1847 0.698396 4.87077 0 6.62886 0ZM6.40028 2.28581C5.30905 2.28581 4.26252 2.7193 3.49091 3.49091C2.7193 4.26252 2.28581 5.30905 2.28581 6.40028V16.4578C2.28581 18.7322 4.12589 20.5723 6.40028 20.5723H16.4578C17.5491 20.5723 18.5956 20.1388 19.3672 19.3672C20.1388 18.5956 20.5723 17.5491 20.5723 16.4578V6.40028C20.5723 4.12589 18.7322 2.28581 16.4578 2.28581H6.40028ZM17.4293 4.00017C17.8082 4.00017 18.1716 4.15069 18.4395 4.41861C18.7074 4.68653 18.858 5.04991 18.858 5.4288C18.858 5.8077 18.7074 6.17108 18.4395 6.439C18.1716 6.70692 17.8082 6.85744 17.4293 6.85744C17.0504 6.85744 16.687 6.70692 16.4191 6.439C16.1512 6.17108 16.0007 5.8077 16.0007 5.4288C16.0007 5.04991 16.1512 4.68653 16.4191 4.41861C16.687 4.15069 17.0504 4.00017 17.4293 4.00017ZM11.4291 5.71453C12.9447 5.71453 14.3982 6.3166 15.4698 7.38828C16.5415 8.45996 17.1436 9.91348 17.1436 11.4291C17.1436 12.9447 16.5415 14.3982 15.4698 15.4698C14.3982 16.5415 12.9447 17.1436 11.4291 17.1436C9.91348 17.1436 8.45996 16.5415 7.38828 15.4698C6.3166 14.3982 5.71453 12.9447 5.71453 11.4291C5.71453 9.91348 6.3166 8.45996 7.38828 7.38828C8.45996 6.3166 9.91348 5.71453 11.4291 5.71453ZM11.4291 8.00034C10.5197 8.00034 9.6476 8.36158 9.00459 9.00459C8.36158 9.6476 8.00034 10.5197 8.00034 11.4291C8.00034 12.3384 8.36158 13.2105 9.00459 13.8535C9.6476 14.4965 10.5197 14.8578 11.4291 14.8578C12.3384 14.8578 13.2105 14.4965 13.8535 13.8535C14.4965 13.2105 14.8578 12.3384 14.8578 11.4291C14.8578 10.5197 14.4965 9.6476 13.8535 9.00459C13.2105 8.36158 12.3384 8.00034 11.4291 8.00034Z" fill="black"/>
</svg>
