<svg width="23" height="23" viewBox="0 0 23 23" fill="none" xmlns="http://www.w3.org/2000/svg">
<path d="M8.19074 22.2274C9.26092 22.5507 10.3422 22.7402 11.4905 22.7402C14.447 22.7402 17.2825 21.5657 19.3731 19.4751C21.4637 17.3845 22.6381 14.5491 22.6381 11.5925C22.6381 10.1286 22.3498 8.67898 21.7896 7.32648C21.2294 5.97398 20.4082 4.74506 19.3731 3.70991C18.3379 2.67475 17.109 1.85362 15.7565 1.29339C14.404 0.733168 12.9544 0.444824 11.4905 0.444824C10.0265 0.444824 8.57692 0.733168 7.22442 1.29339C5.87192 1.85362 4.64301 2.67475 3.60786 3.70991C1.51726 5.8005 0.342773 8.63596 0.342773 11.5925C0.342773 16.3303 3.31921 20.3992 7.52188 22.0044C7.42155 21.1349 7.32122 19.6969 7.52188 18.7047L8.80387 13.1978C8.80387 13.1978 8.48058 12.5512 8.48058 11.5256C8.48058 9.98724 9.43929 8.83903 10.5318 8.83903C11.4905 8.83903 11.9364 9.54134 11.9364 10.4443C11.9364 11.403 11.3009 12.7742 10.9777 14.0896C10.7882 15.1821 11.5573 16.1408 12.6721 16.1408C14.6564 16.1408 16.1948 14.0227 16.1948 11.0351C16.1948 8.35968 14.2774 6.53146 11.5239 6.53146C8.38025 6.53146 6.52974 8.87248 6.52974 11.3361C6.52974 12.2948 6.84187 13.2647 7.35467 13.9001C7.455 13.967 7.455 14.0561 7.42155 14.2234L7.09827 15.4385C7.09827 15.628 6.97565 15.6949 6.78614 15.5611C5.35923 14.9368 4.5343 12.9079 4.5343 11.2692C4.5343 7.74656 7.03138 4.54717 11.8472 4.54717C15.682 4.54717 18.6696 7.30065 18.6696 10.9571C18.6696 14.7919 16.2951 17.8687 12.8951 17.8687C11.8137 17.8687 10.7547 17.289 10.3757 16.609L9.6288 19.251C9.3724 20.2097 8.6701 21.4917 8.19074 22.2608V22.2274Z" fill="black"/>
</svg>
