<svg width="17" height="16" viewBox="0 0 17 16" fill="none" xmlns="http://www.w3.org/2000/svg">
<path fill-rule="evenodd" clip-rule="evenodd" d="M14.1595 2.32804C13.4178 1.58616 12.5363 0.998825 11.566 0.600048C10.5935 0.200238 9.55176 -0.00365998 8.50036 4.97243e-05C4.09289 4.97243e-05 0.5 3.56004 0.5 7.92803C0.5 9.32802 0.823651 10.504 1.51823 11.704L0.776376 16L5.0493 15.0422C6.22026 15.6749 7.15921 15.864 8.49964 15.864C12.9071 15.864 16.5 12.304 16.5 7.93603C16.5 5.81603 15.6687 3.82404 14.1588 2.32877L14.1595 2.32804ZM11.8831 9.46184C11.5129 9.28293 10.9187 8.99639 10.7848 8.94184C10.5986 8.87784 10.4692 8.84584 10.3324 9.03784C10.195 9.23784 9.81606 9.68511 9.7026 9.81384C9.58987 9.94984 9.46841 9.96584 9.26622 9.86184C9.22846 9.84419 9.19039 9.82722 9.15203 9.81093C8.87565 9.69384 8.30835 9.45238 7.66033 8.87784C7.06248 8.34984 6.66683 7.70184 6.54609 7.50184C6.43336 7.30185 6.53009 7.19785 6.63482 7.09385C6.69519 7.03421 6.76719 6.94839 6.83702 6.86403C6.86974 6.82476 6.90247 6.78548 6.93375 6.74985C7.02248 6.64803 7.06321 6.56512 7.11921 6.45385L7.13521 6.42185C7.19994 6.28585 7.16794 6.17385 7.11921 6.07785C6.90863 5.58969 6.704 5.09899 6.50536 4.60585C6.36281 4.26622 6.21444 4.26404 6.09807 4.26331C6.08207 4.26331 6.06753 4.26331 6.05371 4.26185H5.66605C5.52859 4.26185 5.31913 4.30985 5.13294 4.50913C5.11985 4.52513 5.10385 4.54258 5.08639 4.56149C4.87911 4.78694 4.43909 5.26549 4.43909 6.16585C4.43909 7.13675 5.14967 8.07566 5.25294 8.21166L5.2544 8.21384L5.27403 8.24293C5.46823 8.52366 6.75483 10.3877 8.6691 11.2058C9.14548 11.4138 9.51714 11.5331 9.80733 11.6218C10.2837 11.7738 10.7201 11.7498 11.067 11.7018C11.4547 11.6458 12.2533 11.2218 12.4155 10.7578C12.5849 10.2938 12.5849 9.90184 12.5282 9.81384C12.4831 9.74329 12.3958 9.70329 12.2591 9.64075C12.1335 9.58154 12.0082 9.5219 11.8831 9.46184Z" fill="#F1D9B7"/>
</svg>
