<svg width="19" height="23" viewBox="0 0 19 23" fill="none" xmlns="http://www.w3.org/2000/svg">
<path d="M15.2704 4.30171C14.4837 3.38102 14.0501 2.19886 14.0502 0.975098H10.4935V15.6027C10.4666 16.3945 10.1407 17.1446 9.58448 17.6949C9.02827 18.2451 8.28527 18.5524 7.51222 18.5519C5.87771 18.5519 4.51946 17.1835 4.51946 15.4848C4.51946 13.4558 6.43022 11.934 8.39854 12.5593V8.83156C4.42738 8.28892 0.951172 11.4504 0.951172 15.4848C0.951172 19.413 4.1281 22.2088 7.50071 22.2088C11.115 22.2088 14.0502 19.2007 14.0502 15.4848V8.06479C15.4925 9.1263 17.2241 9.69583 18.9998 9.69271V6.04759C18.9998 6.04759 16.8358 6.15376 15.2704 4.30171Z" fill="black"/>
</svg>
