<svg width="17" height="17" viewBox="0 0 17 17" fill="none" xmlns="http://www.w3.org/2000/svg">
<path fill-rule="evenodd" clip-rule="evenodd" d="M14.5132 2.47355C13.7252 1.6853 12.7885 1.06125 11.7576 0.637551C10.7244 0.212753 9.6175 -0.00388873 8.50039 5.2832e-05C3.81745 5.2832e-05 0 3.78254 0 8.42353C0 9.91102 0.343879 11.1605 1.08187 12.4355L0.29365 17L4.83363 15.9823C6.07778 16.6546 7.07541 16.8555 8.49961 16.8555C13.1826 16.8555 17 13.073 17 8.43203C17 6.17953 16.1167 4.06304 14.5125 2.47432L14.5132 2.47355ZM12.0945 10.0532C11.7012 9.86311 11.0698 9.55866 10.9276 9.50071C10.7298 9.43271 10.5923 9.39871 10.447 9.60271C10.3009 9.8152 9.89831 10.2904 9.77776 10.4272C9.65798 10.5717 9.52893 10.5887 9.31411 10.4782C9.27399 10.4595 9.23354 10.4414 9.19278 10.4241C8.89913 10.2997 8.29638 10.0432 7.60785 9.43271C6.97263 8.87171 6.55225 8.18321 6.42397 7.97071C6.3042 7.75821 6.40697 7.64771 6.51825 7.53721C6.58239 7.47385 6.65889 7.38267 6.73308 7.29303C6.76785 7.2513 6.80263 7.20958 6.83586 7.17171C6.93013 7.06353 6.97341 6.97544 7.03291 6.85721L7.04991 6.82321C7.11869 6.67871 7.08469 6.55971 7.03291 6.45772C6.80917 5.93905 6.59175 5.41768 6.3807 4.89372C6.22924 4.53286 6.07159 4.53054 5.94795 4.52977C5.93095 4.52977 5.9155 4.52977 5.90081 4.52822H5.48893C5.34288 4.52822 5.12032 4.57922 4.9225 4.79095C4.90859 4.80795 4.89159 4.82649 4.87304 4.84658C4.6528 5.08613 4.18528 5.59458 4.18528 6.55121C4.18528 7.5828 4.94027 8.58039 5.05 8.72489L5.05155 8.72721L5.07241 8.75812C5.27874 9.05639 6.64576 11.0369 8.67967 11.9062C9.18583 12.1272 9.58071 12.2539 9.88904 12.3482C10.3952 12.5097 10.8589 12.4842 11.2275 12.4332C11.6393 12.3737 12.4878 11.9232 12.6602 11.4302C12.8402 10.9372 12.8402 10.5207 12.7799 10.4272C12.732 10.3522 12.6393 10.3097 12.494 10.2433C12.3606 10.1804 12.2275 10.117 12.0945 10.0532Z" fill="#281500"/>
</svg>
